<svg width="15" height="20" viewBox="0 0 15 20" fill="none" xmlns="http://www.w3.org/2000/svg">
<path fill-rule="evenodd" clip-rule="evenodd" d="M10.0933 11.1025C9.15334 11.9169 8.42889 12.9703 8.01889 14.1691C7.94889 14.178 7.88 14.1858 7.81 14.1925C7.58667 14.2147 7.35667 14.2269 7.12667 14.2269C6.89 14.2269 6.65556 14.2158 6.42556 14.1925C6.35889 14.1858 6.28889 14.178 6.22223 14.1703C5.77667 12.8991 4.98223 11.7891 3.95445 10.9603V10.958C2.84778 10.0469 2.13778 8.66581 2.13334 7.12137C2.12889 4.37581 4.36 2.13803 7.10667 2.13359C9.85223 2.12803 12.0922 4.35914 12.0944 7.1047C12.0989 8.58581 11.4522 9.91803 10.4233 10.8336C10.3167 10.9269 10.2089 11.018 10.0933 11.1025ZM7.10334 0.000254582C3.18112 0.00692125 -0.0044398 3.20248 4.64497e-06 7.1247C0.00222687 7.93581 0.141116 8.71803 0.394449 9.44581C0.837782 10.718 1.63223 11.8269 2.66112 12.6547C3.59556 13.4247 4.24445 14.5258 4.42667 15.778H4.42889C4.43778 15.8703 4.50112 15.9469 4.58334 15.9769C4.58556 15.978 4.59 15.978 4.59223 15.9791C4.59889 15.9814 4.60556 15.9825 4.60889 15.9836C5.25223 16.1647 5.92223 16.2791 6.61223 16.3169C6.78334 16.3258 6.95556 16.3303 7.12889 16.3303C7.29778 16.3303 7.46778 16.3247 7.63445 16.3147C8.32889 16.2769 9.00445 16.1614 9.65112 15.9758H9.65334V15.9747C9.73112 15.9491 9.79334 15.8825 9.81334 15.8014C9.81334 15.788 9.81556 15.7758 9.81556 15.7658C9.98667 14.5769 10.5811 13.5214 11.4389 12.758C11.5456 12.6636 11.6556 12.5714 11.7733 12.4869C12.7089 11.6736 13.4311 10.6191 13.8433 9.42248C14.0956 8.69359 14.23 7.91248 14.2278 7.10137C14.2211 3.18025 11.0244 -0.00641209 7.10334 0.000254582Z" fill="#079FC2"/>
<path fill-rule="evenodd" clip-rule="evenodd" d="M8.69098 7.09225C8.72654 6.65114 9.09098 6.30225 9.54209 6.30225C10.0088 6.30114 10.3888 6.67336 10.3976 7.13892V7.19225V7.20558C10.3454 8.97225 8.89765 10.3922 7.11987 10.3967C5.32765 10.3989 3.86098 8.95558 3.83209 7.16892C3.83209 6.6978 4.21431 6.31558 4.6832 6.31558C5.14987 6.31336 5.52987 6.68558 5.53765 7.1478V7.16558C5.56654 8.01225 6.26543 8.69114 7.11543 8.68892C7.95765 8.68892 8.64765 8.02447 8.68876 7.19114V7.18892C8.69098 7.16447 8.69098 7.13669 8.69098 7.11114V7.09225ZM9.66531 16.7684C9.66976 16.7661 9.67643 16.7661 9.68309 16.7661C9.72865 16.7661 9.76531 16.8028 9.76754 16.8472V16.8506C9.76754 16.8528 9.76754 16.855 9.76531 16.8584C9.7242 17.9017 9.07976 18.7917 8.16643 19.1839C7.84531 19.3206 7.49309 19.3972 7.1242 19.3984C6.75531 19.3984 6.40643 19.325 6.08754 19.1895C5.17309 18.8028 4.52198 17.9161 4.47531 16.8728V16.8717C4.47309 16.8617 4.47309 16.8528 4.47309 16.8428C4.47865 16.8028 4.5142 16.7684 4.55754 16.7684C4.56242 16.7684 4.56551 16.769 4.56943 16.7697C4.57087 16.77 4.57242 16.7703 4.5742 16.7706C4.57681 16.7706 4.57941 16.7713 4.58157 16.772C4.58309 16.7724 4.58439 16.7728 4.58531 16.7728C5.22976 16.9428 5.90087 17.0495 6.59087 17.0839C6.76865 17.0939 6.95087 17.0972 7.13309 17.0972C7.30643 17.0972 7.4842 17.0917 7.65865 17.0828C8.34643 17.0461 9.01198 16.9384 9.65976 16.7706C9.65976 16.7695 9.66531 16.7684 9.66531 16.7684Z" fill="#079FC2"/>
</svg>
