<svg width="15" height="14" viewBox="0 0 15 14" fill="none" xmlns="http://www.w3.org/2000/svg">
<g id="percentage copy 2">
<path id="Shape" d="M14.3826 0.195051C14.1261 -0.0617617 13.7099 -0.0617617 13.4535 0.195051L0.772743 12.8758C0.51604 13.1324 0.51604 13.5482 0.772743 13.8048C0.90104 13.9332 1.06926 13.9974 1.23737 13.9974C1.40548 13.9974 1.5737 13.9332 1.70188 13.8048L14.3826 1.12408C14.6393 0.867488 14.6393 0.451645 14.3826 0.195051Z" fill="#079FC2"/>
<path id="Shape_2" fill-rule="evenodd" clip-rule="evenodd" d="M0.57576 3.12831C0.57576 1.40741 1.97598 0.00708008 3.69688 0.00708008C5.41779 0.00708008 6.81801 1.4073 6.81801 3.12821C6.81801 4.84911 5.4179 6.24944 3.69688 6.24944C1.97598 6.24944 0.57576 4.84922 0.57576 3.12831ZM1.8899 3.12821C1.8899 4.1245 2.70048 4.93519 3.69689 4.93519C4.69329 4.93519 5.50387 4.1245 5.50387 3.12821C5.50387 2.13191 4.69329 1.32122 3.69689 1.32122C2.70059 1.32122 1.8899 2.13191 1.8899 3.12821Z" fill="#079FC2"/>
<path id="Shape_3" fill-rule="evenodd" clip-rule="evenodd" d="M8.33351 10.8758C8.33351 9.15486 9.73373 7.75464 11.4546 7.75464C13.1755 7.75464 14.5758 9.15475 14.5758 10.8758C14.5758 12.5968 13.1755 13.9969 11.4546 13.9969C9.73373 13.9969 8.33351 12.5967 8.33351 10.8758ZM9.64765 10.8757C9.64765 11.872 10.4582 12.6826 11.4546 12.6826C12.451 12.6826 13.2616 11.872 13.2616 10.8757C13.2616 9.87936 12.4509 9.06867 11.4546 9.06867C10.4583 9.06867 9.64765 9.87936 9.64765 10.8757Z" fill="#079FC2"/>
</g>
</svg>
